{
	"asset":{
		"version":"2.0",
		"generator":"Created using the official Cinema 4D glTF Exporter 1.000x284978"
	},
	"scenes":[{
		"nodes":[0]
	}],
	"nodes":[{
		"name":"LOGO3D",
		"translation":[1.4695398807525635,
		7.7291460037231449,
		0.0],
		"rotation":[0.0,
		-0.0034906514920294286,
		0.0,
		0.9999939203262329],
		"scale":[1.0,
		1.0,
		1.0],
		"children":[1,
		3,
		4,
		5,
		6,
		7,
		8,
		9]
	},
	{
		"name":"Extrude.7",
		"translation":[-1.4695398807525635,
		-7.7291460037231449,
		0.0],
		"rotation":[0.0,
		0.0,
		0.0,
		-1.0],
		"scale":[1.0,
		1.0,
		1.0],
		"children":[2]
	},
	{
		"name":"Extrude.7",
		"mesh":0
	},
	{
		"name":"Extrude.6",
		"translation":[-1.4695398807525635,
		-7.7291460037231449,
		1.734723475976807e-18],
		"rotation":[0.0,
		0.0,
		0.0,
		-1.0],
		"scale":[1.0,
		1.0,
		1.0],
		"mesh":1
	},
	{
		"name":"Extrude.5",
		"translation":[-1.4695398807525635,
		-7.7291460037231449,
		1.734723475976807e-18],
		"rotation":[0.0,
		0.0,
		0.0,
		-1.0],
		"scale":[1.0,
		1.0,
		1.0],
		"mesh":2
	},
	{
		"name":"Extrude.4",
		"translation":[-1.4695398807525635,
		-7.7291460037231449,
		1.734723475976807e-18],
		"rotation":[0.0,
		0.0,
		0.0,
		-1.0],
		"scale":[1.0,
		1.0,
		1.0],
		"mesh":3
	},
	{
		"name":"Extrude.3",
		"translation":[-1.4695398807525635,
		-7.7291460037231449,
		1.734723475976807e-18],
		"rotation":[0.0,
		0.0,
		0.0,
		-1.0],
		"scale":[1.0,
		1.0,
		1.0],
		"mesh":4
	},
	{
		"name":"Extrude.2",
		"translation":[-1.4695398807525635,
		-7.7291460037231449,
		1.734723475976807e-18],
		"rotation":[0.0,
		0.0,
		0.0,
		-1.0],
		"scale":[1.0,
		1.0,
		1.0],
		"mesh":5
	},
	{
		"name":"Extrude.1",
		"translation":[-1.4695398807525635,
		-7.7291460037231449,
		1.734723475976807e-18],
		"rotation":[0.0,
		0.0,
		0.0,
		-1.0],
		"scale":[1.0,
		1.0,
		1.0],
		"mesh":6
	},
	{
		"name":"Extrude",
		"translation":[-1.4695398807525635,
		-7.7291460037231449,
		1.734723475976807e-18],
		"rotation":[0.0,
		0.0,
		0.0,
		-1.0],
		"scale":[1.0,
		1.0,
		1.0],
		"mesh":7
	}],
	"meshes":[{
		"name":"Extrude.7",
		"primitives":[{
			"attributes":{
				"POSITION":3,
				"NORMAL":4,
				"TEXCOORD_0":5
			},
			"indices":2,
			"material":0
		}]
	},
	{
		"name":"Extrude.6",
		"primitives":[{
			"attributes":{
				"POSITION":7,
				"NORMAL":8,
				"TEXCOORD_0":9
			},
			"indices":6
		}]
	},
	{
		"name":"Extrude.5",
		"primitives":[{
			"attributes":{
				"POSITION":11,
				"NORMAL":12,
				"TEXCOORD_0":13
			},
			"indices":10
		}]
	},
	{
		"name":"Extrude.4",
		"primitives":[{
			"attributes":{
				"POSITION":15,
				"NORMAL":16,
				"TEXCOORD_0":17
			},
			"indices":14
		}]
	},
	{
		"name":"Extrude.3",
		"primitives":[{
			"attributes":{
				"POSITION":19,
				"NORMAL":20,
				"TEXCOORD_0":21
			},
			"indices":18
		}]
	},
	{
		"name":"Extrude.2",
		"primitives":[{
			"attributes":{
				"POSITION":23,
				"NORMAL":24,
				"TEXCOORD_0":25
			},
			"indices":22
		}]
	},
	{
		"name":"Extrude.1",
		"primitives":[{
			"attributes":{
				"POSITION":27,
				"NORMAL":28,
				"TEXCOORD_0":29
			},
			"indices":26
		}]
	},
	{
		"name":"Extrude",
		"primitives":[{
			"attributes":{
				"POSITION":31,
				"NORMAL":32,
				"TEXCOORD_0":33
			},
			"indices":30
		}]
	}],
	"accessors":[{
		"bufferView":0,
		"type":"SCALAR",
		"componentType":5126,
		"count":91,
		"byteOffset":0,
		"min":[0.0],
		"max":[3.0]
	},
	{
		"bufferView":0,
		"type":"VEC4",
		"componentType":5126,
		"count":91,
		"byteOffset":364,
		"min":[0.0,
		-0.9999619126319885,
		-1.0165907227133176e-8,
		-0.9999920129776001],
		"max":[4.0183238958491078e-9,
		-0.0015709022991359234,
		6.274091468583265e-9,
		0.9999987483024597]
	},
	{
		"bufferView":1,
		"type":"SCALAR",
		"componentType":5123,
		"count":36,
		"byteOffset":0,
		"min":[0],
		"max":[23]
	},
	{
		"bufferView":2,
		"type":"VEC3",
		"componentType":5126,
		"count":24,
		"byteOffset":0,
		"min":[16.005266189575197,
		3.6481666564941408,
		-2.0],
		"max":[21.272499084472658,
		5.431214809417725,
		0.0]
	},
	{
		"bufferView":2,
		"type":"VEC3",
		"componentType":5126,
		"count":24,
		"byteOffset":12,
		"min":[-1.0,
		-1.0,
		-1.0],
		"max":[1.0,
		1.0,
		1.0]
	},
	{
		"bufferView":2,
		"type":"VEC2",
		"componentType":5126,
		"count":24,
		"byteOffset":24,
		"min":[0.0,
		0.0],
		"max":[1.0,
		1.0]
	},
	{
		"bufferView":3,
		"type":"SCALAR",
		"componentType":5123,
		"count":36,
		"byteOffset":0,
		"min":[0],
		"max":[23]
	},
	{
		"bufferView":4,
		"type":"VEC3",
		"componentType":5126,
		"count":24,
		"byteOffset":0,
		"min":[9.972872734069825,
		9.343968391418457,
		-2.0],
		"max":[11.753405570983887,
		14.50412654876709,
		0.0]
	},
	{
		"bufferView":4,
		"type":"VEC3",
		"componentType":5126,
		"count":24,
		"byteOffset":12,
		"min":[-1.0,
		-1.0,
		-1.0],
		"max":[1.0,
		1.0,
		1.0]
	},
	{
		"bufferView":4,
		"type":"VEC2",
		"componentType":5126,
		"count":24,
		"byteOffset":24,
		"min":[0.0,
		0.0],
		"max":[1.0,
		1.0]
	},
	{
		"bufferView":5,
		"type":"SCALAR",
		"componentType":5123,
		"count":36,
		"byteOffset":0,
		"min":[0],
		"max":[23]
	},
	{
		"bufferView":6,
		"type":"VEC3",
		"componentType":5126,
		"count":24,
		"byteOffset":0,
		"min":[13.859957695007325,
		7.4261698722839359,
		-2.0],
		"max":[19.9317684173584,
		13.50468921661377,
		0.0]
	},
	{
		"bufferView":6,
		"type":"VEC3",
		"componentType":5126,
		"count":24,
		"byteOffset":12,
		"min":[-0.7077315449714661,
		-0.7066750526428223,
		-1.0],
		"max":[0.7075382471084595,
		0.707185685634613,
		1.0]
	},
	{
		"bufferView":6,
		"type":"VEC2",
		"componentType":5126,
		"count":24,
		"byteOffset":24,
		"min":[0.0,
		0.0],
		"max":[1.0,
		1.0]
	},
	{
		"bufferView":7,
		"type":"SCALAR",
		"componentType":5123,
		"count":420,
		"byteOffset":0,
		"min":[0],
		"max":[165]
	},
	{
		"bufferView":8,
		"type":"VEC3",
		"componentType":5126,
		"count":166,
		"byteOffset":0,
		"min":[1.6981910467147828,
		-0.6097869873046875,
		-2.0],
		"max":[6.314044952392578,
		7.715017318725586,
		0.0]
	},
	{
		"bufferView":8,
		"type":"VEC3",
		"componentType":5126,
		"count":166,
		"byteOffset":12,
		"min":[-1.0,
		-1.0,
		-1.0],
		"max":[1.0,
		0.9999568462371826,
		1.0]
	},
	{
		"bufferView":8,
		"type":"VEC2",
		"componentType":5126,
		"count":166,
		"byteOffset":24,
		"min":[0.0,
		0.0],
		"max":[1.0,
		1.0]
	},
	{
		"bufferView":9,
		"type":"SCALAR",
		"componentType":5123,
		"count":36,
		"byteOffset":0,
		"min":[0],
		"max":[23]
	},
	{
		"bufferView":10,
		"type":"VEC3",
		"componentType":5126,
		"count":24,
		"byteOffset":0,
		"min":[-9.657986640930176,
		-0.6095647215843201,
		-2.0],
		"max":[-7.665825843811035,
		9.785117149353028,
		0.0]
	},
	{
		"bufferView":10,
		"type":"VEC3",
		"componentType":5126,
		"count":24,
		"byteOffset":12,
		"min":[-1.0,
		-1.0,
		-1.0],
		"max":[1.0,
		1.0,
		1.0]
	},
	{
		"bufferView":10,
		"type":"VEC2",
		"componentType":5126,
		"count":24,
		"byteOffset":24,
		"min":[0.0,
		0.0],
		"max":[1.0,
		1.0]
	},
	{
		"bufferView":11,
		"type":"SCALAR",
		"componentType":5123,
		"count":2172,
		"byteOffset":0,
		"min":[0],
		"max":[749]
	},
	{
		"bufferView":12,
		"type":"VEC3",
		"componentType":5126,
		"count":750,
		"byteOffset":0,
		"min":[-6.496953010559082,
		-0.6094271540641785,
		-2.0],
		"max":[0.35987213253974917,
		7.752559661865234,
		0.0]
	},
	{
		"bufferView":12,
		"type":"VEC3",
		"componentType":5126,
		"count":750,
		"byteOffset":12,
		"min":[-1.0,
		-1.0,
		-1.0],
		"max":[1.0,
		0.9999861717224121,
		1.0]
	},
	{
		"bufferView":12,
		"type":"VEC2",
		"componentType":5126,
		"count":750,
		"byteOffset":24,
		"min":[0.0,
		0.0],
		"max":[1.0,
		1.0]
	},
	{
		"bufferView":13,
		"type":"SCALAR",
		"componentType":5123,
		"count":1512,
		"byteOffset":0,
		"min":[0],
		"max":[517]
	},
	{
		"bufferView":14,
		"type":"VEC3",
		"componentType":5126,
		"count":518,
		"byteOffset":0,
		"min":[-20.726333618164064,
		-0.5711260437965393,
		-2.0],
		"max":[-10.673274040222168,
		9.785258293151856,
		0.0]
	},
	{
		"bufferView":14,
		"type":"VEC3",
		"componentType":5126,
		"count":518,
		"byteOffset":12,
		"min":[-0.9998661875724793,
		-1.0,
		-1.0],
		"max":[0.9999977350234985,
		1.0,
		1.0]
	},
	{
		"bufferView":14,
		"type":"VEC2",
		"componentType":5126,
		"count":518,
		"byteOffset":24,
		"min":[0.0,
		0.0],
		"max":[1.0,
		1.0]
	},
	{
		"bufferView":15,
		"type":"SCALAR",
		"componentType":5123,
		"count":1692,
		"byteOffset":0,
		"min":[0],
		"max":[567]
	},
	{
		"bufferView":16,
		"type":"VEC3",
		"componentType":5126,
		"count":568,
		"byteOffset":0,
		"min":[6.486535549163818,
		-0.6657586693763733,
		-2.0],
		"max":[14.779187202453614,
		7.734247207641602,
		0.0]
	},
	{
		"bufferView":16,
		"type":"VEC3",
		"componentType":5126,
		"count":568,
		"byteOffset":12,
		"min":[-0.999997615814209,
		-0.9999902248382568,
		-1.0],
		"max":[0.9999975562095642,
		0.9999916553497315,
		1.0]
	},
	{
		"bufferView":16,
		"type":"VEC2",
		"componentType":5126,
		"count":568,
		"byteOffset":24,
		"min":[0.0,
		0.0],
		"max":[1.0,
		1.0]
	}],
	"bufferViews":[{
		"buffer":0,
		"byteOffset":0,
		"byteLength":1820
	},
	{
		"buffer":1,
		"byteOffset":0,
		"byteLength":72,
		"target":34963
	},
	{
		"buffer":1,
		"byteOffset":72,
		"byteLength":768,
		"target":34962,
		"byteStride":32
	},
	{
		"buffer":2,
		"byteOffset":0,
		"byteLength":72,
		"target":34963
	},
	{
		"buffer":2,
		"byteOffset":72,
		"byteLength":768,
		"target":34962,
		"byteStride":32
	},
	{
		"buffer":3,
		"byteOffset":0,
		"byteLength":72,
		"target":34963
	},
	{
		"buffer":3,
		"byteOffset":72,
		"byteLength":768,
		"target":34962,
		"byteStride":32
	},
	{
		"buffer":4,
		"byteOffset":0,
		"byteLength":840,
		"target":34963
	},
	{
		"buffer":4,
		"byteOffset":840,
		"byteLength":5312,
		"target":34962,
		"byteStride":32
	},
	{
		"buffer":5,
		"byteOffset":0,
		"byteLength":72,
		"target":34963
	},
	{
		"buffer":5,
		"byteOffset":72,
		"byteLength":768,
		"target":34962,
		"byteStride":32
	},
	{
		"buffer":6,
		"byteOffset":0,
		"byteLength":4344,
		"target":34963
	},
	{
		"buffer":6,
		"byteOffset":4344,
		"byteLength":24000,
		"target":34962,
		"byteStride":32
	},
	{
		"buffer":7,
		"byteOffset":0,
		"byteLength":3024,
		"target":34963
	},
	{
		"buffer":7,
		"byteOffset":3024,
		"byteLength":16576,
		"target":34962,
		"byteStride":32
	},
	{
		"buffer":8,
		"byteOffset":0,
		"byteLength":3384,
		"target":34963
	},
	{
		"buffer":8,
		"byteOffset":3384,
		"byteLength":18176,
		"target":34962,
		"byteStride":32
	}],
	"buffers":[{
		"uri":"data:application/octet-stream;base64,",
		"byteLength":1820
	},
	{
		"uri":"data:application/octet-stream;base64,",
		"byteLength":840
	},
	{
		"uri":"data:application/octet-stream;base64,",
		"byteLength":840
	},
	{
		"uri":"data:application/octet-stream;base64,",
		"byteLength":840
	},
	{
		"uri":"data:application/octet-stream;base64,",
		"byteLength":6152
	},
	{
		"uri":"data:application/octet-stream;base64,",
		"byteLength":840
	},
	{
		"uri":"data:application/octet-stream;base64,",
		"byteLength":28344
	},
	{
		"uri":"data:application/octet-stream;base64,",
		"byteLength":19600
	},
	{
		"uri":"data:application/octet-stream;base64,",
		"byteLength":21560
	}],
	"materials":[{
		"emissiveFactor":[0.0,
		0.0,
		0.0],
		"pbrMetallicRoughness":{
			"baseColorFactor":[1.0,
			0.0,
			0.0,
			1.0],
			"metallicFactor":1.0,
			"roughnessFactor":1.0
		},
		"alphaMode":"OPAQUE",
		"doubleSided":true,
		"name":"Mat"
	}],
	"animations":[{
		"samplers":[{
			"input":0,
			"interpolation":"LINEAR",
			"output":1
		}],
		"channels":[{
			"sampler":0,
			"target":{
				"node":0,
				"path":"rotation"
			}
		}]
	}]
}